<?xml version="1.0" encoding="utf-8"?>
<!-- Generator: Adobe Illustrator 19.2.1, SVG Export Plug-In . SVG Version: 6.00 Build 0)  -->
<svg version="1.1" id="Layer_1" xmlns="http://www.w3.org/2000/svg" xmlns:xlink="http://www.w3.org/1999/xlink" x="0px" y="0px"
	 viewBox="0 0 800 600" style="enable-background:new 0 0 800 600;" xml:space="preserve">
<style type="text/css">
	.st0{fill:#6D6E71;}
	.st1{fill:#F7941E;}
</style>
<g>
	<g>
		<path class="st0" d="M434.414,252.476c-2.057-3-4.543-5.687-7.177-8.195c-22.798-21.704-31.546-41.632-34.836-52.387
			c-2.205-5.868-1.921-8.334-1.921-8.334s-14.05,19.81,22.71,62.795c0.324,0.379,0.618,0.737,0.935,1.111
			c0.122,0.144,0.237,0.269,0.359,0.414c0.115,0.137,0.232,0.286,0.347,0.425c30.968,36.81,27.929,50.557,26.164,63.175
			c-0.106,1.424-0.25,2.848-0.477,4.274c-0.029,0.279-0.055,0.435-0.055,0.435c15.612-25.604,1.092-52.926-6.017-63.666
			C434.435,252.508,434.424,252.492,434.414,252.476z"/>
		<path class="st0" d="M457.439,209.703l-20.185,34.015c15.125,16.782,17.874,40.96,17.874,40.96l40.021-74.975H457.439z"/>
		<path class="st1" d="M410.639,261.554c-0.619-0.549-1.148-1.096-1.747-1.645c-0.271-0.252-0.531-0.512-0.808-0.76
			c-26.418-24.563-33.305-48.534-35.092-58.482c-10.501,24.903,9.691,53.879,21.908,68.252l-8.202,13.767l-43.139-72.983h-38.707
			l67.982,118.602l30.443-50.315c20.329,15.247,19.567,51.535,19.567,51.535s0.834-1.177,1.965-3.282
			c0.123-0.232,0.247-0.462,0.365-0.699C430.379,315.48,440.303,287.87,410.639,261.554z"/>
	</g>
	<g>
		<g>
			<path class="st1" d="M239.636,341.897l-16.765,30.86l-16.579-30.86h-11.034l11.351,20.745l-5.421,10.109l-16.575-30.853h-11.034
				l22.217,40.612c1.69,3.062,3.392,4.55,5.203,4.55c1.81,0,3.512-1.489,5.2-4.547l5.698-10.173l5.578,10.169
				c1.69,3.062,3.392,4.55,5.203,4.55c1.81,0,3.512-1.489,5.2-4.546l22.802-40.616H239.636z"/>
			<path class="st1" d="M282.201,341.897h-12.108c-6.507,0-11.921,2.017-16.092,5.993c-4.179,3.984-6.298,9.288-6.298,15.764
				c0,6.51,2.136,11.98,6.348,16.257c4.215,4.28,9.611,6.45,16.042,6.45h12.108c6.473,0,11.881-2.17,16.074-6.451
				c4.191-4.277,6.316-9.747,6.316-16.256c0-6.475-2.108-11.778-6.266-15.763C294.176,343.914,288.75,341.897,282.201,341.897z
				 M292.097,373.946c-2.559,2.457-5.889,3.703-9.896,3.703h-12.108c-3.966,0-7.275-1.247-9.832-3.703
				c-2.551-2.451-3.845-5.7-3.845-9.658c0-4.004,1.296-7.32,3.852-9.855c2.557-2.537,5.863-3.823,9.826-3.823h12.108
				c4.004,0,7.331,1.287,9.889,3.823c2.556,2.537,3.852,5.852,3.852,9.855C295.942,368.245,294.648,371.494,292.097,373.946z"/>
			<path class="st1" d="M343.752,341.897h-12.108c-6.507,0-11.921,2.017-16.092,5.993c-4.179,3.984-6.298,9.288-6.298,15.764
				c0,6.51,2.136,11.98,6.348,16.257c4.215,4.28,9.611,6.45,16.042,6.45h12.108c6.473,0,11.881-2.17,16.074-6.451
				c4.191-4.277,6.316-9.747,6.316-16.256c0-6.475-2.108-11.778-6.266-15.763C355.727,343.914,350.302,341.897,343.752,341.897z
				 M353.648,373.946c-2.559,2.457-5.889,3.703-9.896,3.703h-12.108c-3.966,0-7.275-1.247-9.832-3.703
				c-2.551-2.451-3.845-5.7-3.845-9.658c0-4.004,1.296-7.32,3.852-9.855c2.557-2.537,5.863-3.823,9.826-3.823h12.108
				c4.003,0,7.331,1.287,9.889,3.823c2.556,2.537,3.852,5.852,3.852,9.855C357.494,368.245,356.2,371.494,353.648,373.946z"/>
			<path class="st1" d="M398.457,341.897h-24.99v44.464h24.99c6.43,0,11.827-2.17,16.043-6.45c4.212-4.277,6.348-9.748,6.348-16.257
				c0-6.475-2.119-11.779-6.298-15.764C410.378,343.913,404.963,341.897,398.457,341.897z M408.29,373.946
				c-2.559,2.457-5.868,3.703-9.833,3.703h-16.341V350.61h16.341c3.962,0,7.268,1.287,9.826,3.823
				c2.556,2.537,3.852,5.852,3.852,9.855C412.136,368.245,410.842,371.494,408.29,373.946z"/>
			<path class="st0" d="M469.393,362.008c-2.885-2.493-6.532-3.757-10.842-3.757h-20.412c-1.32,0-2.408-0.334-3.327-1.024
				c-0.866-0.648-1.287-1.554-1.287-2.765c0-1.175,0.425-2.082,1.299-2.774c0.917-0.726,2.001-1.079,3.315-1.079h33.23v-8.712
				h-33.23c-3.881,0-7.183,1.089-9.818,3.241c-2.833,2.346-4.269,5.462-4.269,9.26c0,3.844,1.436,6.981,4.272,9.327
				c2.629,2.15,5.932,3.239,9.815,3.239h20.412c1.952,0,3.643,0.42,5.025,1.249c1.599,0.952,2.377,2.26,2.377,3.999
				c0,1.75-0.764,3.104-2.319,4.128c-1.421,0.869-3.131,1.309-5.083,1.309H424.94v8.712h33.611c4.305,0,7.95-1.218,10.839-3.627
				c3.038-2.598,4.579-6.075,4.579-10.334C473.969,368.145,472.43,364.649,469.393,362.008z"/>
			<path class="st0" d="M513.446,341.897h-12.108c-6.507,0-11.921,2.017-16.092,5.993c-4.18,3.985-6.299,9.288-6.299,15.764
				c0,6.509,2.136,11.98,6.348,16.257c4.216,4.28,9.613,6.45,16.043,6.45h12.108c6.472,0,11.88-2.17,16.076-6.451
				c4.191-4.277,6.315-9.747,6.315-16.256c0-6.475-2.108-11.778-6.266-15.763C525.42,343.914,519.995,341.897,513.446,341.897z
				 M523.341,373.946c-2.558,2.457-5.888,3.703-9.895,3.703h-12.108c-3.966,0-7.274-1.247-9.832-3.703
				c-2.553-2.451-3.846-5.7-3.846-9.658c0-4.004,1.296-7.319,3.853-9.854c2.557-2.538,5.863-3.824,9.826-3.824h12.108
				c4.003,0,7.331,1.287,9.888,3.824c2.557,2.535,3.854,5.852,3.854,9.854C527.188,368.245,525.894,371.494,523.341,373.946z"/>
			<polygon class="st0" points="541.514,386.361 550.226,386.361 550.226,350.61 580.083,350.61 580.083,341.897 541.514,341.897 
							"/>
			<rect x="552.226" y="359.456" class="st0" width="25.891" height="8.712"/>
			<polygon class="st0" points="583.605,341.897 583.605,350.61 600.72,350.61 600.72,386.361 609.369,386.361 609.369,350.61 
				626.421,350.61 626.421,341.897 			"/>
		</g>
		<g>
			<g>
				<path class="st0" d="M258.537,400.477h-5.861v-3.167c5.332,0,9.847,0,15.206,0v3.167h-5.861v15.312h-3.484V400.477z"/>
				<path class="st0" d="M291.963,415.789H278.13c0-6.151,0-12.328,0-18.479h13.833v3.379h-10.375v4.25h10.005v3.247h-10.005v4.171
					h10.375V415.789z"/>
				<path class="st0" d="M319.133,413.466c-1.901,1.874-4.356,2.745-7.022,2.745c-6.864,0-9.767-4.725-9.794-9.53
					c-0.026-4.831,3.115-9.741,9.794-9.741c2.508,0,4.884,0.95,6.784,2.824l-2.323,2.244c-1.214-1.188-2.851-1.742-4.461-1.742
					c-4.461,0-6.388,3.325-6.362,6.415c0.026,3.062,1.795,6.257,6.362,6.257c1.61,0,3.432-0.661,4.646-1.874L319.133,413.466z"/>
				<path class="st0" d="M341.868,415.815v-7.47h-9.081v7.47h-3.484v-18.479h3.484v7.787h9.081v-7.787h3.458v18.479H341.868z"/>
				<path class="st0" d="M368.933,397.283h3.485v18.506h-2.164v0.026l-9.715-12.487v12.46h-3.485V397.31h2.825l9.054,11.457V397.283
					z"/>
				<path class="st0" d="M402.229,406.655c-0.053,4.777-2.983,9.556-9.477,9.556c-6.494,0-9.504-4.672-9.504-9.53
					s3.115-9.741,9.504-9.741C399.114,396.94,402.282,401.824,402.229,406.655z M386.68,406.734
					c0.079,3.035,1.716,6.283,6.072,6.283c4.356,0,5.992-3.274,6.045-6.309c0.053-3.115-1.69-6.599-6.045-6.599
					C388.396,400.108,386.6,403.619,386.68,406.734z"/>
				<path class="st0" d="M416.465,397.31v15.258h9.504v3.22h-12.989V397.31H416.465z"/>
				<path class="st0" d="M454.219,406.655c-0.053,4.777-2.983,9.556-9.477,9.556s-9.504-4.672-9.504-9.53s3.115-9.741,9.504-9.741
					C451.104,396.94,454.272,401.824,454.219,406.655z M438.67,406.734c0.08,3.035,1.717,6.283,6.072,6.283
					c4.356,0,5.993-3.274,6.046-6.309c0.053-3.115-1.69-6.599-6.046-6.599C440.387,400.108,438.591,403.619,438.67,406.734z"/>
				<path class="st0" d="M478.698,401.824c-1.241-1.188-3.089-1.848-4.699-1.848c-3.96,0-6.362,3.009-6.362,6.811
					c0,3.037,1.768,6.178,6.362,6.178c1.452,0,2.719-0.317,4.171-1.478v-3.274h-4.726v-3.115h7.92v7.788
					c-1.822,2.086-4.119,3.327-7.365,3.327c-6.943,0-9.767-4.567-9.767-9.425c0-5.2,3.247-10.005,9.767-10.005
					c2.482,0,4.962,0.951,6.863,2.824L478.698,401.824z"/>
				<path class="st0" d="M492.431,415.789V397.31h3.459v18.479H492.431z"/>
				<path class="st0" d="M521.13,415.789h-13.832c0-6.151,0-12.328,0-18.479h13.832v3.379h-10.375v4.25h10.006v3.247h-10.006v4.171
					h10.375V415.789z"/>
				<path class="st0" d="M543.971,401.771c-0.634-1.056-2.376-2.059-4.383-2.059c-2.587,0-3.828,1.082-3.828,2.454
					c0,1.611,1.901,2.059,4.119,2.324c3.854,0.475,7.444,1.477,7.444,5.886c0,4.119-3.643,5.887-7.762,5.887
					c-3.775,0-6.678-1.161-8.052-4.54l2.904-1.505c0.818,2.032,2.957,2.929,5.2,2.929c2.192,0,4.251-0.765,4.251-2.772
					c0-1.742-1.822-2.454-4.277-2.719c-3.775-0.449-7.259-1.451-7.259-5.596c0-3.801,3.749-5.359,7.154-5.386
					c2.878,0,5.861,0.818,7.259,3.67L543.971,401.771z"/>
			</g>
			<rect x="559.013" y="405.252" class="st0" width="67.408" height="2.434"/>
			<rect x="173.579" y="405.252" class="st0" width="67.408" height="2.434"/>
		</g>
	</g>
</g>
</svg>
